<svg width="226" height="102" viewBox="0 0 226 102" fill="none" xmlns="http://www.w3.org/2000/svg">
<path d="M58.6279 48.4C57.7279 48.4 57.0446 48.3833 56.5779 48.35C55.1446 54.6167 54.3446 58.9667 54.1779 61.4C52.7446 62.1 50.5613 62.45 47.6279 62.45C46.9946 62.45 46.5613 62.4333 46.3279 62.4C46.5613 60.4333 47.5613 55.5 49.3279 47.6C51.0946 39.6667 51.9779 34.6667 51.9779 32.6C51.9779 32.2 51.7446 31.6833 51.2779 31.05C50.8446 30.3833 50.3946 29.8333 49.9279 29.4L49.2779 28.75L49.4279 28C55.0279 27.1667 59.5613 26.75 63.0279 26.75C69.8946 26.75 73.3279 29.55 73.3279 35.15C73.3279 38.8833 72.0946 42.0333 69.6279 44.6C67.1613 47.1333 63.4946 48.4 58.6279 48.4ZM57.8279 45.05C60.3946 45.05 62.3279 44.0833 63.6279 42.15C64.9613 40.2167 65.6279 37.6333 65.6279 34.4C65.6279 33.0667 65.3779 31.9833 64.8779 31.15C64.3779 30.2833 63.6446 29.85 62.6779 29.85C62.0446 29.85 61.2613 29.9667 60.3279 30.2C59.7946 33.7 58.7946 38.65 57.3279 45.05H57.8279ZM78.3115 62.85C76.0115 62.85 74.2115 62.05 72.9115 60.45C71.6115 58.8167 70.9615 56.55 70.9615 53.65C70.9615 49.95 71.9449 46.7667 73.9115 44.1C75.9115 41.4333 78.6615 40.1 82.1615 40.1L83.9615 40.2C84.5282 39.9 85.1615 39.75 85.8615 39.75C88.4949 39.75 89.8115 42.2333 89.8115 47.2C91.1782 47.1333 92.5615 46.95 93.9615 46.65L94.7615 46.45L95.0615 48.4C93.9615 48.8667 92.4782 49.2833 90.6115 49.65L89.6115 49.85C88.9782 53.35 87.6949 56.4 85.7615 59C83.8282 61.5667 81.3449 62.85 78.3115 62.85ZM81.0115 58.55C82.4115 58.55 83.6615 57.65 84.7615 55.85C85.8949 54.05 86.6782 52.15 87.1115 50.15C83.5449 50.15 81.7615 48.8167 81.7615 46.15C81.7615 45.0833 81.9782 44.0833 82.4115 43.15L82.6615 42.65C82.5282 42.5833 82.3615 42.55 82.1615 42.55C81.9615 42.55 81.8115 42.5833 81.7115 42.65C80.8782 43.1833 80.0949 44.4333 79.3615 46.4C78.6282 48.3667 78.2615 50.6167 78.2615 53.15C78.2615 56.75 79.1782 58.55 81.0115 58.55ZM92.0869 62.4H91.7369C91.6702 62.1333 91.6369 61.5333 91.6369 60.6C91.6369 59.6333 92.0869 57.0667 92.9869 52.9C93.8869 48.7333 94.3369 46.35 94.3369 45.75C94.3369 44.7167 93.8702 43.5833 92.9369 42.35L92.4869 41.75L92.5369 41.1C94.3369 40.6 97.2202 40.35 101.187 40.35C101.587 41.2167 101.787 42.4333 101.787 44C102.154 43.4 102.92 42.6 104.087 41.6C105.254 40.6 106.454 40.1 107.687 40.1C109.487 40.1 110.387 41.6667 110.387 44.8C110.22 45 109.987 45.2667 109.687 45.6C109.42 45.9 108.854 46.3333 107.987 46.9C107.154 47.4667 106.337 47.8167 105.537 47.95C105.504 47.95 105.22 47.5 104.687 46.6C104.154 45.7 103.754 45.25 103.487 45.25C102.654 45.55 101.92 46.05 101.287 46.75C99.7536 53.65 98.9869 58.1167 98.9869 60.15C98.9869 60.8833 99.0036 61.4 99.0369 61.7C97.8702 62.1667 95.5536 62.4 92.0869 62.4ZM125.926 40.7C125.86 41.5333 125.576 42.5 125.076 43.6C123.81 43.4667 122.61 43.4 121.476 43.4H120.576C119.043 50.8333 118.276 55.4667 118.276 57.3C118.276 58.2667 118.476 58.75 118.876 58.75C119.31 58.75 120.426 58.3333 122.226 57.5L123.126 59.15C120.16 61.6167 117.41 62.85 114.876 62.85C113.71 62.85 112.743 62.4833 111.976 61.75C111.243 61.0167 110.876 60.05 110.876 58.85C110.876 57.6167 111.01 56.2333 111.276 54.7C111.576 53.1667 111.976 51.3 112.476 49.1C112.976 46.8667 113.343 45.0667 113.576 43.7C112.343 43.8 111.426 43.9 110.826 44C110.76 43.6 110.726 43.0667 110.726 42.4C110.726 41.7 110.776 41.1333 110.876 40.7H114.026C114.293 38.9 114.426 37.2 114.426 35.6L114.376 34.05V33.9C116.976 33 119.426 32.55 121.726 32.55C121.86 33.2167 121.926 34.05 121.926 35.05C121.926 36.05 121.643 37.9333 121.076 40.7H125.926ZM141.234 40.7C141.167 41.4333 140.867 42.4 140.334 43.6C139.067 43.4667 137.817 43.4 136.584 43.4H136.384C135.684 51.6333 135.034 57.7167 134.434 61.65C133.834 65.5833 133.05 68.3333 132.084 69.9C130.884 69.8667 129.634 69.7 128.334 69.4C127.067 69.1333 126.2 68.85 125.734 68.55C126.534 66.0833 127.334 62.3667 128.134 57.4C128.967 52.4333 129.5 47.85 129.734 43.65C128.8 43.7167 127.767 43.8333 126.634 44C126.534 43.5667 126.484 43.1333 126.484 42.7C126.484 42.2333 126.55 41.5667 126.684 40.7H129.884C129.95 37.8 130.1 35.6 130.334 34.1C130.734 31.4333 131.65 29.35 133.084 27.85C134.55 26.3167 136.434 25.55 138.734 25.55C140.2 25.55 141.35 25.8833 142.184 26.55C143.05 27.1833 143.484 28.2 143.484 29.6C143.484 31 142.85 32.8167 141.584 35.05C140.317 37.25 138.65 39.1333 136.584 40.7H141.234ZM136.684 37.55C137.984 36.45 139 35.2333 139.734 33.9C140.467 32.5667 140.834 31.3667 140.834 30.3C140.834 29.2 140.484 28.65 139.784 28.65C138.317 28.65 137.384 30.3333 136.984 33.7C136.85 34.8333 136.75 36.1167 136.684 37.55ZM147.55 62.85C145.25 62.85 143.45 62.05 142.15 60.45C140.85 58.8167 140.2 56.55 140.2 53.65C140.2 49.95 141.183 46.7667 143.15 44.1C145.15 41.4333 147.9 40.1 151.4 40.1L153.2 40.2C153.766 39.9 154.4 39.75 155.1 39.75C157.733 39.75 159.05 42.2333 159.05 47.2C160.416 47.1333 161.8 46.95 163.2 46.65L164 46.45L164.3 48.4C163.2 48.8667 161.716 49.2833 159.85 49.65L158.85 49.85C158.216 53.35 156.933 56.4 155 59C153.066 61.5667 150.583 62.85 147.55 62.85ZM150.25 58.55C151.65 58.55 152.9 57.65 154 55.85C155.133 54.05 155.916 52.15 156.35 50.15C152.783 50.15 151 48.8167 151 46.15C151 45.0833 151.216 44.0833 151.65 43.15L151.9 42.65C151.766 42.5833 151.6 42.55 151.4 42.55C151.2 42.55 151.05 42.5833 150.95 42.65C150.116 43.1833 149.333 44.4333 148.6 46.4C147.866 48.3667 147.5 50.6167 147.5 53.15C147.5 56.75 148.416 58.55 150.25 58.55ZM164.859 62.85C163.725 62.85 162.775 62.4667 162.009 61.7C161.275 60.9333 160.909 59.8667 160.909 58.5C160.909 57.1 161.725 52.6833 163.359 45.25C165.025 37.7833 165.859 32.4 165.859 29.1L165.559 26.9C168.159 26 170.592 25.55 172.859 25.55C173.192 26.0167 173.359 26.8333 173.359 28C173.359 30.6667 172.509 35.8333 170.809 43.5C169.142 51.1333 168.309 55.5833 168.309 56.85C168.309 58.0833 168.459 58.7 168.759 58.7L172.259 57.45L173.159 59.2C172.025 60.1 170.642 60.9333 169.009 61.7C167.409 62.4667 166.025 62.85 164.859 62.85ZM184.64 43.2C184.64 44.6 184.19 47.0167 183.29 50.45C182.39 53.85 181.94 56.0833 181.94 57.15C181.94 58.1833 182.09 58.7 182.39 58.7C182.59 58.7 183.357 58.3833 184.69 57.75L185.29 57.45L186.14 59.2C185.84 59.4667 185.44 59.8 184.94 60.2C184.44 60.6 183.507 61.15 182.14 61.85C180.773 62.5167 179.507 62.85 178.34 62.85C177.173 62.85 176.257 62.5 175.59 61.8C174.923 61.0667 174.59 60.1 174.59 58.9C174.59 57.6667 175.007 55.5 175.84 52.4C176.673 49.2667 177.09 47.2333 177.09 46.3C177.09 44.9 176.657 43.5833 175.79 42.35L175.34 41.75L175.39 41.1C177.157 40.6 180.023 40.35 183.99 40.35C184.423 40.85 184.64 41.8 184.64 43.2ZM178.94 34.9C178.273 34.2333 177.94 33.35 177.94 32.25C177.94 31.15 178.39 30.1833 179.29 29.35C180.223 28.5167 181.29 28.1 182.49 28.1C183.69 28.1 184.623 28.4333 185.29 29.1C185.957 29.7667 186.29 30.65 186.29 31.75C186.29 32.8167 185.807 33.7667 184.84 34.6C183.907 35.4333 182.857 35.85 181.69 35.85C180.523 35.85 179.607 35.5333 178.94 34.9ZM194.913 62.85C192.613 62.85 190.813 62.05 189.513 60.45C188.213 58.8167 187.563 56.55 187.563 53.65C187.563 49.95 188.546 46.7667 190.513 44.1C192.513 41.4333 195.263 40.1 198.763 40.1L200.563 40.2C201.13 39.9 201.763 39.75 202.463 39.75C205.096 39.75 206.413 42.2333 206.413 47.2C207.78 47.1333 209.163 46.95 210.563 46.65L211.363 46.45L211.663 48.4C210.563 48.8667 209.08 49.2833 207.213 49.65L206.213 49.85C205.58 53.35 204.296 56.4 202.363 59C200.43 61.5667 197.946 62.85 194.913 62.85ZM197.613 58.55C199.013 58.55 200.263 57.65 201.363 55.85C202.496 54.05 203.28 52.15 203.713 50.15C200.146 50.15 198.363 48.8167 198.363 46.15C198.363 45.0833 198.58 44.0833 199.013 43.15L199.263 42.65C199.13 42.5833 198.963 42.55 198.763 42.55C198.563 42.55 198.413 42.5833 198.313 42.65C197.48 43.1833 196.696 44.4333 195.963 46.4C195.23 48.3667 194.863 50.6167 194.863 53.15C194.863 56.75 195.78 58.55 197.613 58.55Z" fill="#D8DBE2"/>
<path d="M46.5 2.75C19.5 27.25 -15.9 74.75 58.5 68.75M3 2.75L58.5 100.25" stroke="#58A4B0" stroke-width="6"/>
</svg>
