<svg width="376" height="380" viewBox="0 0 376 380" fill="none" xmlns="http://www.w3.org/2000/svg">
<path d="M95.0716 158.461V158.461C94.1035 145.474 135.404 107.405 141.78 96.0497C151.997 77.853 170.153 68.3644 198.016 68.3644C226.412 68.3644 243.458 81.3951 252.734 101.038C258.363 112.959 298.673 136.953 299.822 150.085V150.085V150.085C300.691 160.029 244.194 229.93 236.079 235.743C225.244 243.504 211.455 249.148 194.416 249.462C137.277 250.517 133.175 189.252 125.566 187.663C117.958 186.074 97.7716 194.68 95.0716 158.461Z" fill="#FFBFAD"/>
<path d="M151.31 263.717C157.741 266.024 164.7 261.404 164.7 254.572V254.572C164.7 247.915 171.305 243.38 177.72 245.159C189.264 248.359 199.149 248.921 212.177 245.399C218.662 243.646 225.45 248.178 225.45 254.896V254.896C225.45 261.613 232.253 266.205 238.642 264.13C270.898 253.652 297.714 254.482 319.95 263.271C331.103 267.679 343.886 280.024 354.419 297.166C379.464 337.928 338.268 378.495 290.427 378.495H97.8698C45.1951 378.495 -5.5077 325.981 30.4268 287.466C38.2202 279.114 47.9744 271.887 60.2372 265.46C63.1021 263.959 66.131 262.767 69.2321 261.847C99.7629 252.795 120.216 252.566 151.31 263.717Z" fill="#FFBFAD"/>
<path d="M163.415 212.869C173.64 212.869 181.93 204.946 181.93 195.172C181.93 185.399 173.64 177.476 163.415 177.476C153.189 177.476 144.9 185.399 144.9 195.172C144.9 204.946 153.189 212.869 163.415 212.869Z" fill="#D67679"/>
<path d="M226.735 212.869C236.961 212.869 245.25 204.946 245.25 195.172C245.25 185.399 236.961 177.476 226.735 177.476C216.51 177.476 208.22 185.399 208.22 195.172C208.22 204.946 216.51 212.869 226.735 212.869Z" fill="#D67679"/>
<path d="M176.426 265.784C170.51 267.371 164.7 262.914 164.7 256.79V256.79C164.7 250.105 171.534 245.665 177.946 247.553C192.387 251.803 203.701 250.899 219.317 245.1C222.256 244.009 225.45 246.129 225.45 249.264V249.264C225.45 251.25 224.116 252.989 222.197 253.504L176.426 265.784Z" fill="#DB9A8C"/>
<path d="M191.511 216.337V216.337C190.385 216.264 187.414 219.718 188.53 219.887C189.546 220.041 190.612 220.079 191.729 219.977C192.781 219.881 193.769 219.76 194.7 219.612C196.011 219.403 192.836 216.424 191.511 216.337V216.337Z" fill="black"/>
<path d="M162.45 177.476C166.178 177.476 169.2 173.321 169.2 168.195C169.2 163.069 166.178 158.913 162.45 158.913C158.722 158.913 155.7 163.069 155.7 168.195C155.7 173.321 158.722 177.476 162.45 177.476Z" fill="black"/>
<path d="M227.7 177.476C231.428 177.476 234.45 173.321 234.45 168.195C234.45 163.069 231.428 158.913 227.7 158.913C223.972 158.913 220.95 163.069 220.95 168.195C220.95 173.321 223.972 177.476 227.7 177.476Z" fill="black"/>
<path d="M194.074 189.066C195.47 188.796 196.348 187.405 195.992 186.029V186.029C195.304 183.376 191.449 183.659 191.156 186.384V186.384C190.979 188.032 192.447 189.381 194.074 189.066V189.066Z" fill="#FFBCBD"/>
<path d="M192.15 171.59L190.624 182.596C190.084 186.488 193.824 189.591 197.55 188.342V188.342" stroke="black" stroke-width="2.25"/>
<path d="M155.08 136.619C151.613 137.575 153.11 139.413 156.631 138.681C157.302 138.541 157.958 138.445 158.608 138.385C161.951 138.079 162.649 135.679 159.3 135.904V135.904C157.844 136.002 156.43 136.247 155.08 136.619Z" fill="black"/>
<path d="M227.362 136.917C223.572 137.103 224.392 139.551 228.187 139.561C230.23 139.566 232.028 139.717 233.76 140.016C237.066 140.586 238.453 137.94 235.144 137.394V137.394C232.624 136.977 229.921 136.792 227.362 136.917Z" fill="black"/>
<path d="M109.102 154.246L117.698 176.384" stroke="black" stroke-width="2.25"/>
<path d="M293.005 153.028L278.426 171.73" stroke="black" stroke-width="2.25"/>
<path d="M293.821 378.118L283.05 317.827" stroke="black" stroke-width="2.7"/>
<path d="M92.2959 378.95L102.331 318.546" stroke="black" stroke-width="2.7"/>
<path d="M181.178 12.6987C168.893 17.2988 158.705 22.2969 150.228 27.59C120.188 46.348 144.772 82.2744 177.636 69.0729C209.858 56.129 239.056 34.4317 279.119 8.56416C279.354 8.41223 279.309 8.04966 279.04 7.97169V7.97169C248.287 -0.937952 230.983 -5.95142 181.178 12.6987Z" fill="#FFC6FF"/>
<path d="M269.511 169.8C271.997 169.8 274.083 167.929 274.351 165.458L276.405 146.538C276.665 144.144 277.582 141.805 279.404 140.231C282.255 137.768 285.034 136.746 287.728 136.882C293.026 137.148 298.765 136.522 296.01 131.99V131.99C293.898 128.516 294.755 123.576 298.144 121.33C300.554 119.732 302.792 117.861 305.475 115.307C306.913 113.938 308.051 112.273 308.732 110.408C310.158 106.502 310.806 103.3 310.789 100.235C310.74 92.0297 310.554 83.6085 310.554 75.4033V75.4033V75.4033C310.555 65.172 304.047 52.6102 303.444 42.3968C303.011 35.0788 300.002 25.8158 291.429 14.9622C268.824 -13.657 136.434 84.0317 110.304 81.2889C92.3032 79.3997 88.0169 97.9553 90.7582 117.524C92.6376 130.94 118.35 133.143 118.35 146.689V146.689L121.35 173.439C121.594 175.621 123.44 177.271 125.636 177.271V177.271C127.805 177.271 129.637 175.66 129.913 173.508L132.433 153.906C134.082 141.083 144.689 131.462 157.528 129.947C174.08 127.993 188.048 124.699 202.285 118.973C224.966 109.852 252.276 119.579 258.624 143.186L264.81 166.197C265.382 168.323 267.31 169.8 269.511 169.8V169.8Z" fill="#FFC6FF"/>
<path d="M215.573 378.495C248.294 378.495 274.871 352.064 275.052 319.343L275.187 295.053C275.303 274.104 257.203 255.521 237.3 262.062V262.062C229.732 264.55 223.906 270.284 219.517 276.932C202.592 302.566 190.09 302.374 171.66 278.932C165.369 270.93 158.469 263.167 148.896 259.706C146.704 258.913 144.247 258.124 141.525 257.385V257.385C125.229 252.961 112.068 267.931 111.79 284.815L111.34 312.224C110.741 348.647 140.102 378.495 176.529 378.495H215.573Z" fill="#FFC6FF"/>
<path d="M122.924 354.046C116.173 354.046 110.7 359.519 110.7 366.27V366.27C110.7 373.022 116.173 378.495 122.924 378.495H262.501C269.252 378.495 274.725 373.022 274.725 366.27V366.27C274.725 359.519 269.252 354.046 262.501 354.046H122.924Z" fill="#BDB2FF"/>
<path d="M122.924 329.598C116.173 329.598 110.7 335.071 110.7 341.822V341.822C110.7 348.573 116.173 354.046 122.924 354.046H262.501C269.252 354.046 274.725 348.573 274.725 341.822V341.822C274.725 335.071 269.252 329.598 262.501 329.598H122.924Z" fill="#FFD6A5"/>
<path d="M123.266 305.15C116.646 305.15 111.229 310.419 111.047 317.037V317.037C110.857 323.917 116.383 329.598 123.266 329.598H262.501C269.252 329.598 274.725 324.125 274.725 317.374V317.374C274.725 310.623 269.252 305.15 262.501 305.15H123.266Z" fill="#CAFFBF"/>
<path d="M122.36 283.418C116.49 283.418 111.682 288.079 111.499 293.946V293.946C111.308 300.076 116.226 305.15 122.36 305.15H264.043C270.067 305.15 274.95 300.267 274.95 294.243V294.243C274.95 288.251 270.117 283.381 264.126 283.336L233.76 283.105C222.023 283.016 212.005 289.802 201.484 295.006C197.517 296.968 193.847 296.918 189.561 294.822C178.887 289.601 168.418 283.418 156.536 283.418H122.36Z" fill="#A0C4FF"/>
<path d="M322.508 316.912C323.469 313.935 327.681 313.935 328.642 316.912V316.912C329.072 318.243 330.313 319.145 331.711 319.145V319.145C334.84 319.145 336.127 323.163 333.602 325.009V325.009C332.473 325.834 331.999 327.304 332.428 328.634V328.634C333.388 331.605 329.996 334.108 327.476 332.266V332.266C326.344 331.439 324.806 331.439 323.674 332.266V332.266C321.154 334.108 317.762 331.605 318.722 328.634V328.634C319.151 327.304 318.677 325.834 317.548 325.009V325.009C315.023 323.163 316.31 319.145 319.439 319.145V319.145C320.837 319.145 322.078 318.243 322.508 316.912V316.912Z" fill="black"/>
</svg>
